# xmcd CD database file
#
# Track frame offsets:
#	150
#	21435
#	37537
#	63692
#	92040
#	123605
#	146412
#	162912
#	183442
#	200385
#
# Disc length: 3040 seconds
#
# Revision: 0
# Processed by: cddbd v1.5.1PL2 Copyright (c) Steve Scherf et al.
# Submitted via: CDex 1.51
#
DISCID=860bde0a
DTITLE=Chicago Express - Blues: A Taste Outside The Law
DYEAR=1998
DGENRE=Blues
TTITLE0=Little Wheel
TTITLE1=Blues: A Taste Outside The Law
TTITLE2=Ain't No Sunshine
TTITLE3=Hot Damn Baby
TTITLE4=Hoochie Coochie Man
TTITLE5=Out On The Road
TTITLE6=The Letter
TTITLE7=You Better Watch Yourself
TTITLE8=Barbara
TTITLE9=Everyday I Got The Blues
EXTD=YEAR: 1998
EXTT0=
EXTT1=
EXTT2=
EXTT3=
EXTT4=
EXTT5=
EXTT6=
EXTT7=
EXTT8=
EXTT9=
PLAYORDER=
